<?xml version="1.0" encoding="UTF-8"?><svg id="Layer_2" xmlns="http://www.w3.org/2000/svg" viewBox="0 0 98.6 100.33"><defs><style>.cls-1{fill:#f08286;}.cls-2{fill:#b5d8f0;}.cls-3{fill:#f2e46b;}</style></defs><g id="Camada_1"><g><path class="cls-2" d="M39.56,51.17c-3.07,5.16-2.76,11.55-.16,16.83,2.4,4.88,7.23,10.09,13.06,9.27,1.6-.22,2.27-2.09,2.02-3.46-1.07-6.03-8.85-9.12-6.84-16.21,2.52-8.88,11.69-1.45,15.39,1.84,4.61,4.09,10.35-1.96,6.65-6.63-7.25-9.17-23.06-13.52-30.12-1.65Z"/><path class="cls-3" d="M22.96,37.36c-6.02,9.29-7.02,21.67-3.08,31.94,3.26,8.48,13.43,21.77,23.92,19.49,1.53-.33,2.63-2.5,1.64-3.87-2.24-3.08-5.39-4.31-8.31-6.7-3.45-2.82-6.4-6.26-8.3-10.31-3.73-7.95-3.18-17.83,1.56-25.23,4.72-7.38,13.3-11.83,21.96-9.14,7.92,2.46,14.07,8.65,19.93,14.19,5.46,5.15,13.7-3.01,8.28-8.26-8.24-7.99-17.71-16.08-29.65-16.95-11.25-.81-21.93,5.54-27.95,14.84Z"/><path class="cls-1" d="M53.53,.21C35.66-1.55,22.6,7.9,12.33,21.7,2.34,35.11-2.53,51.18,1.31,67.76c3.1,13.37,15.79,34.65,31.91,32.41,1.94-.27,2.73-2.85,1.85-4.37-3.14-5.4-8.84-8.43-12.97-13.04-4.36-4.87-7.57-10.67-9.19-17.01-3.46-13.6,.92-26.64,9.16-37.59,8.28-10.99,18.46-18.34,32.73-16.02,13.96,2.26,24.85,12.09,33.93,22.27,5.03,5.65,13.32-2.67,8.31-8.29C85.55,13.21,71.28,1.95,53.53,.21Z"/></g></g></svg>