<?xml version="1.0" encoding="UTF-8"?><svg id="Layer_2" xmlns="http://www.w3.org/2000/svg" viewBox="0 0 1401.52 417.71"><defs><style>.cls-1{fill:#fbf8ea;}</style></defs><g id="Camada_1"><path class="cls-1" d="M18.41,411.73c31.47,17.23,79.85-67.36,169.31-64.69,70.79,2.11,80.89,56.28,157.96,60.52,72.26,3.97,80.07-42.74,159.47-46.79,86.58-4.41,110.85,49.43,197.78,52.08,83.02,2.53,88.9-58.63,167.78-59.09,84.24-.49,95.82,61.04,182.94,62.9,80.38,1.72,92.49-50.18,173.9-46.65,84.72,3.68,123.45,62.13,153.63,44.33,34.34-20.26,18.9-116.4-.35-163.03C1255.05-53.48,199.97-101.71,32.75,221.49-.6,285.93-13.66,394.17,18.41,411.73Z"/></g></svg>