<?xml version="1.0" encoding="UTF-8"?><svg id="Layer_2" xmlns="http://www.w3.org/2000/svg" viewBox="0 0 589.96 210.54"><defs><style>.cls-1{fill:#f1e36a;}</style></defs><g id="Camada_1"><g><g><path class="cls-1" d="M75.64,1.21c-5.9-1.82-12.4-1.74-17.9,1.26-1.86,1.02-1.44,4.65,1.06,4,4.93-1.28,9.61-1.51,14.46,.22,3.65,1.31,6-4.37,2.38-5.48Z"/><path class="cls-1" d="M103.03,22.73c-1.99-1.65-3.92-3.31-5.82-5.07-1.75-1.63-4.67,1.18-3.02,2.94,1.77,1.89,3.42,3.81,5.08,5.8,1.01,1.21,2.78,1.43,3.95,.29,1.14-1.11,1.03-2.94-.19-3.95Z"/><path class="cls-1" d="M131.34,46.3c-3.39-4.12-7.82-7.43-11.62-11.18-1.62-1.6-4.42,1.1-2.87,2.81,3.59,3.97,6.7,8.53,10.68,12.1,2.27,2.04,5.75-1.37,3.81-3.72Z"/><path class="cls-1" d="M170.71,66.14c-6.54-1.44-13.33-2.03-19.95-3.02-1.99-.3-3.04,2.92-.99,3.52,6.65,1.94,13.29,4.33,20.05,5.81,4.01,.88,4.88-5.44,.89-6.31Z"/><path class="cls-1" d="M208.3,60.3c-4.08,.92-8.07,2.56-12.03,3.9-2.96,1-1.7,5.99,1.41,5.34,4.09-.85,8.36-1.44,12.34-2.71,3.64-1.15,2.06-7.39-1.73-6.54Z"/><path class="cls-1" d="M247.65,38.66c-5.4,3.11-10.09,7.27-15.27,10.71-2.71,1.8,.31,5.72,3.01,4.01,5.28-3.35,11.01-5.97,16.07-9.66,3.39-2.47-.38-7.04-3.81-5.06Z"/><path class="cls-1" d="M283.32,17.86c-7.12,1.78-13.68,6.3-20.18,9.63-1.99,1.02-.83,3.94,1.32,3.23,6.93-2.27,14.77-3.74,21.03-7.54,2.47-1.5,.68-6.02-2.16-5.31Z"/><path class="cls-1" d="M314.62,19.09c-4.44-2.52-10.13-2.95-15.12-2.51-2.19,.19-2.28,3.8-.02,3.93,4.78,.29,8.56,1.94,12.84,3.87,3.46,1.56,5.45-3.5,2.3-5.3Z"/><path class="cls-1" d="M353.17,42.7c-1.34-4.07-5.11-7.75-8.19-10.62-3.25-3.03-7.2-5.42-11.2-7.35-1.86-.9-3.6,1.93-1.88,3.14,3.38,2.38,6.24,5.14,8.77,8.41,2.46,3.16,3.74,6.9,6.03,10.09,2.59,3.61,7.75,.23,6.47-3.67Z"/><path class="cls-1" d="M39.81,3.25c-3.87,1.57-7.54,3.84-11.23,5.8-2.75,1.47-.7,6.19,2.26,5.04,3.9-1.5,8.02-2.78,11.74-4.68,3.4-1.73,.83-7.63-2.77-6.17Z"/><path class="cls-1" d="M10.04,17.88C5.61,20.42,2.34,25.1,.18,29.62c-.95,1.98,2.1,3.9,3.37,2.02,2.69-3.97,6.03-6.38,9.88-9.08,3.11-2.19-.24-6.48-3.39-4.68Z"/></g><g><path class="cls-1" d="M582.08,202.95c1.36,2.2,2.67,4.37,3.91,6.65,1.14,2.1,4.8,.36,3.79-1.84-1.08-2.35-2.04-4.7-2.98-7.1-.58-1.47-2.18-2.23-3.66-1.52-1.44,.7-1.91,2.46-1.07,3.81Z"/><path class="cls-1" d="M562.67,171.64c1.91,4.98,5.07,9.52,7.49,14.28,1.03,2.04,4.54,.35,3.61-1.75-2.16-4.9-3.66-10.21-6.31-14.86-1.51-2.65-5.89-.52-4.8,2.33Z"/><path class="cls-1" d="M531.59,140.37c5.75,3.43,12.01,6.14,17.98,9.17,1.79,.91,3.8-1.81,2.05-3.02-5.69-3.95-11.24-8.31-17.19-11.86-3.52-2.1-6.35,3.61-2.84,5.71Z"/><path class="cls-1" d="M494.08,134.02c4.16,.41,8.46,.12,12.64,.1,3.12-.01,3.5-5.15,.35-5.52-4.15-.49-8.39-1.27-12.57-1.33-3.81-.05-4.29,6.36-.43,6.75Z"/><path class="cls-1" d="M449.91,142.12c6.11-1.25,11.87-3.71,17.88-5.34,3.13-.85,1.51-5.53-1.59-4.75-6.06,1.51-12.33,2.18-18.3,4.08-4,1.27-1.87,6.8,2.01,6.01Z"/><path class="cls-1" d="M409.5,150.58c7.32,.57,14.97-1.65,22.19-2.76,2.21-.34,2.03-3.47-.23-3.48-7.29-.03-15.19-1.12-22.33,.51-2.81,.64-2.55,5.5,.37,5.73Z"/><path class="cls-1" d="M380.19,139.52c3.41,3.8,8.68,6,13.55,7.16,2.14,.51,3.37-2.88,1.27-3.73-4.45-1.79-7.51-4.55-10.96-7.74-2.79-2.58-6.28,1.6-3.86,4.3Z"/><path class="cls-1" d="M351.07,104.93c-.01,4.28,2.4,8.97,4.41,12.66,2.13,3.9,5.12,7.42,8.3,10.51,1.48,1.44,4.03-.69,2.78-2.38-2.46-3.32-4.29-6.85-5.67-10.75-1.33-3.77-1.36-7.73-2.53-11.48-1.32-4.24-7.28-2.67-7.3,1.44Z"/><path class="cls-1" d="M357.19,84.82c1.47-4.02,.79-9.25,.15-13.41-.67-4.39-2.29-8.72-4.23-12.7-.91-1.86-4.02-.72-3.42,1.3,1.18,3.96,1.71,7.9,1.67,12.03-.03,4-1.35,7.73-1.53,11.66-.2,4.43,5.94,4.99,7.35,1.12Z"/></g></g></g></svg>