<?xml version="1.0" encoding="UTF-8"?><svg id="Layer_2" xmlns="http://www.w3.org/2000/svg" viewBox="0 0 1425 596.56"><defs><style>.cls-1{fill:#ef8184;}</style></defs><g id="Camada_1"><g><g><path class="cls-1" d="M440.65,7.46c-56.12,21.41-70.34,79.17-130.12,83-58.8,3.76-78.6-49.94-141.95-58C132.77,27.91,77.03,37.16,0,113.46l694-7C560.9-5.45,485.2-9.54,440.65,7.46Z"/><path class="cls-1" d="M1163.65,7.46c-56.12,21.41-70.34,79.17-130.12,83-57.51,3.68-78.87-44.56-141.95-58-44.02-9.38-108.94-1.48-201.04,73.64,242.16,.12,484.31,.24,726.47,.36C1283.9-5.45,1208.2-9.54,1163.65,7.46Z"/></g><g><path class="cls-1" d="M984.35,589.1c56.12-21.41,70.34-79.17,130.12-83,58.8-3.76,78.6,49.94,141.95,58,35.8,4.55,91.54-4.7,168.57-81l-694,7c133.1,111.91,208.8,116,253.35,99Z"/><path class="cls-1" d="M261.35,589.1c56.12-21.41,70.34-79.17,130.12-83,57.51-3.68,78.87,44.56,141.95,58,44.02,9.38,108.94,1.48,201.04-73.64-242.16-.12-484.31-.24-726.47-.36,133.1,111.91,208.8,116,253.35,99Z"/></g><rect class="cls-1" x="10.53" y="104.1" width="1383" height="392"/></g></g></svg>