<?xml version="1.0" encoding="UTF-8"?><svg id="Layer_2" xmlns="http://www.w3.org/2000/svg" xmlns:xlink="http://www.w3.org/1999/xlink" viewBox="0 0 288 166.58"><defs><style>.cls-1{letter-spacing:-.01em;}.cls-2{fill:#fff;filter:url(#drop-shadow-1);font-family:Gilroy-ExtraBold, Gilroy;font-size:35px;font-weight:700;}.cls-3{fill:#b5d8f0;}.cls-4{letter-spacing:-.03em;}</style><filter id="drop-shadow-1" filterUnits="userSpaceOnUse"><feOffset dx="6" dy="5"/><feGaussianBlur result="blur" stdDeviation="10"/><feFlood flood-color="#7a7a7a" flood-opacity=".1"/><feComposite in2="blur" operator="in"/><feComposite in="SourceGraphic"/></filter></defs><g id="Camada_1"><g><g><path class="cls-3" d="M252,71.1c0-.09,0-.16,0-.19,0,.03,0,.09,0,.19Z"/><path class="cls-3" d="M252,71.17s0-.05,0-.06c0,.02,0,.04,0,.06Z"/><path class="cls-3" d="M252,70.91s0-.03,0,0h0Z"/><path class="cls-3" d="M251.99,74.39c0-1.06,0-2.59,0-3.22,0,.44,0,1.42,0,3.23,0,1.71,0,1.14,0,0-.19,63.89-64.88,85.58-117.41,91.01-24.51,2.54-56.81,1.14-80.63-6.53-6.32-2.03-17.36-9.65-26.2-23.23-2.63-4.04-10.03-15.7-10.41-31.48-.16-6.6,1.31-13.07,4.24-26.03,1.87-8.25,3.78-15.04,5.22-19.81-2.45-6.78-12.98-37.45-9.01-53.54,8.58,13.76,25.97,17.89,38.35,19.01,18.18-10.37,41.48-15.05,59.92-19.43,53.09-12.59,136.14-.79,135.95,69.99Z"/></g><text class="cls-2" transform="translate(54.28 72.44)"><tspan class="cls-4" x="0" y="0">P</tspan><tspan x="19.6" y="0">a</tspan><tspan class="cls-1" x="41.4" y="0">r</tspan><tspan x="53.83" y="0">a </tspan><tspan class="cls-1" x="84.38" y="0">c</tspan><tspan x="102.44" y="0">ada </tspan><tspan x="22.57" y="42">crian</tspan><tspan class="cls-1" x="105.42" y="42">รง</tspan><tspan x="123.48" y="42">a</tspan></text></g></g></svg>