<?xml version="1.0" encoding="UTF-8"?><svg id="Layer_2" xmlns="http://www.w3.org/2000/svg" viewBox="0 0 88.81 74.39"><defs><style>.cls-1{fill:#f2e46b;}</style></defs><g id="Camada_1"><g><path class="cls-1" d="M22.93,52.04c-2.78,.95-5.57,1.62-8.38,2.04,.1-2.73,.2-5.46,.37-8.19,.2-3.42-5.52-3.43-5.32,0,.17,2.89,.28,5.78,.39,8.67-2.62,.14-5.27,.07-7.95-.2-2.3-.23-2.86,3.72-.55,4.06,2.9,.44,5.79,.65,8.66,.65,.08,2.81,.16,5.61,.23,8.42,.06,2.43,3.72,2.43,3.78,0,.07-2.87,.15-5.74,.23-8.61,3.34-.26,6.67-.8,9.99-1.65,3.37-.87,1.84-6.31-1.43-5.19Z"/><path class="cls-1" d="M51.65,7.38c-2.42,.05-4.84,.1-7.27,.15,.24-1.89,.34-3.84-.32-5.57-.84-2.2-4.85-2.98-5.29,0-.28,1.94,.07,3.77,.22,5.68-2.56,.05-5.13,.1-7.69,.16-3.23,.07-3.24,4.96,0,5.02,2.5,.05,5,.1,7.51,.15-.14,1.05-.34,2.09-.61,3.14-.7,2.73,3.43,3.86,4.21,1.16,.4-1.39,.75-2.79,1.05-4.21,2.72,.05,5.45,.11,8.17,.16,3.76,.08,3.77-5.92,0-5.84Z"/><path class="cls-1" d="M85.91,44.85c-5.33-1.79-10-2.79-13.6-7.59-1.78-2.37-3.15-4.92-4.61-7.48-.97-1.7-2.07-3.94-3.61-5.18-2.32-1.86-6.41-.22-5.38,3.13,.01,.04,.02,.08,.03,.12-1,3.94-1.78,7.82-4.55,11.04-1.49,1.74-2.75,3.43-4.69,4.7-1.29,.85-3.74,2.73-5.22,3.05-4.84,1.03-3.86,9.24,1.19,8.76,4.79-.45,6.7,1.56,9.79,5.1,3.11,3.57,5.11,7.81,7.07,12.1,1.58,3.45,6.33,1.36,6.56-1.78,.3-4.21,4.45-9.41,7.32-12.22,1.69-1.66,4.13-3.25,6.24-4.34,1.84-.95,3.72-1.29,5.23-2.79,2.21-2.2,1.03-5.7-1.75-6.63Z"/></g></g></svg>