<svg width="878" height="103" viewBox="0 0 878 103" fill="none" xmlns="http://www.w3.org/2000/svg">
<g clip-path="url(#clip0_49_5)">
<path d="M11.5301 84.6182C31.2381 95.4395 61.536 42.313 117.56 43.9898C161.892 45.315 168.217 79.3363 216.482 81.9992C261.735 84.4925 266.626 55.1565 316.35 52.6129C370.57 49.8432 385.77 83.6572 440.21 85.3216C492.201 86.9105 495.883 48.4992 545.282 48.2103C598.037 47.9025 605.288 86.5462 659.846 87.7144C710.184 88.7947 717.768 56.1991 768.751 58.4161C821.807 60.7273 846.061 97.4366 864.962 86.2573C886.467 73.533 895.472 -5.5759 883.417 -34.8618C804.648 -226.285 98.1456 -237.847 -6.57563 -34.8617C-27.461 5.60975 -8.55369 73.5896 11.5301 84.6182Z" fill="#FBF8EA"/>
</g>
<defs>
<clipPath id="clip0_49_5">
<rect width="878" height="103" fill="white"/>
</clipPath>
</defs>
</svg>
