<svg width="1402" height="164" viewBox="0 0 1402 164" fill="none" xmlns="http://www.w3.org/2000/svg">
<g clip-path="url(#clip0_48_2)">
<path d="M1383.59 29.2679C1352.12 12.038 1303.74 96.6277 1214.28 93.9577C1143.49 91.8477 1133.39 37.678 1056.32 33.438C984.059 29.468 976.249 76.1778 896.849 80.2278C810.269 84.6378 785.998 30.798 699.068 28.148C616.048 25.618 610.168 86.7777 531.288 87.2377C447.048 87.7277 435.469 26.198 348.35 24.338C267.97 22.618 255.86 74.5177 174.45 70.9877C89.7299 67.3078 50.9999 8.85805 20.8199 26.6581C-13.5201 46.9181 -27.9 172.878 -8.65005 219.508C117.13 524.298 1245.28 542.708 1412.5 219.508C1445.85 155.068 1415.66 46.8279 1383.59 29.2679Z" fill="#FBF8EA"/>
</g>
<defs>
<clipPath id="clip0_48_2">
<rect width="1402" height="164" fill="white" transform="translate(1402 164) rotate(180)"/>
</clipPath>
</defs>
</svg>
