<svg width="1402" height="164" viewBox="0 0 1402 164" fill="none" xmlns="http://www.w3.org/2000/svg">
<g clip-path="url(#clip0_1_89)">
<path d="M18.4114 134.732C49.8814 151.962 98.2614 67.3723 187.721 70.0423C258.511 72.1523 268.611 126.322 345.681 130.562C417.941 134.532 425.751 87.8222 505.151 83.7722C591.731 79.3622 616.002 133.202 702.932 135.852C785.952 138.382 791.832 77.2223 870.712 76.7623C954.952 76.2723 966.531 137.802 1053.65 139.662C1134.03 141.382 1146.14 89.4823 1227.55 93.0123C1312.27 96.6923 1351 155.142 1381.18 137.342C1415.52 117.082 1429.9 -8.87774 1410.65 -55.5077C1284.87 -360.298 156.72 -378.708 -10.5 -55.5077C-43.85 8.93227 -13.6586 117.172 18.4114 134.732Z" fill="#FBF8EA"/>
</g>
<defs>
<clipPath id="clip0_1_89">
<rect width="1402" height="164" fill="white"/>
</clipPath>
</defs>
</svg>
