<svg width="878" height="103" viewBox="0 0 878 103" fill="none" xmlns="http://www.w3.org/2000/svg">
<g clip-path="url(#clip0_48_2)">
<path d="M866.47 18.3818C846.762 7.56054 816.464 60.687 760.44 59.0102C716.108 57.685 709.783 23.6637 661.518 21.0008C616.265 18.5075 611.374 47.8435 561.65 50.3871C507.43 53.1568 492.23 19.3428 437.79 17.6784C385.799 16.0895 382.117 54.5008 332.718 54.7897C279.963 55.0975 272.712 16.4538 218.153 15.2856C167.816 14.2053 160.232 46.8009 109.249 44.5839C56.1932 42.2727 31.9386 5.56341 13.0384 16.7427C-8.46698 29.467 -17.4724 108.576 -5.41712 137.862C73.3524 329.285 779.854 340.847 884.576 137.862C905.461 97.3903 886.554 29.4104 866.47 18.3818Z" fill="#FBF8EA"/>
</g>
<defs>
<clipPath id="clip0_48_2">
<rect width="878" height="103" fill="white" transform="translate(878 103) rotate(180)"/>
</clipPath>
</defs>
</svg>
