<svg width="1417" height="269" viewBox="0 0 1417 269" fill="none" xmlns="http://www.w3.org/2000/svg">
<g clip-path="url(#clip0_36_34)">
<path fill-rule="evenodd" clip-rule="evenodd" d="M0 -284H1417V106C1339.97 188.044 1284.23 188.99 1248.43 184.097C1218.47 179.998 1198.25 164.92 1179.03 150.594C1157.63 134.63 1137.47 119.6 1106.48 121.731C1073.01 124.037 1053.82 144.521 1033.57 166.146C1017.64 183.144 1001.06 200.847 976.36 210.979H976.35C931.99 229.181 856.746 224.898 724.701 106.062C633.349 185.88 568.875 194.258 525.09 184.207C496.643 177.677 476.686 163.518 458.068 150.309C435.429 134.246 414.77 119.588 383.232 121.762C349.784 124.071 330.608 144.581 310.365 166.232C294.452 183.252 277.88 200.977 253.196 211.122H253.186C208.665 229.425 133.514 226.485 0.5 106C23.3193 106.012 46.134 106.011 68.9451 106H0V-284Z" fill="#EF8184"/>
</g>
<defs>
<clipPath id="clip0_36_34">
<rect width="1417" height="269" fill="white"/>
</clipPath>
</defs>
</svg>
