<svg width="1417" height="195" viewBox="0 0 1417 195" fill="none" xmlns="http://www.w3.org/2000/svg">
<g clip-path="url(#clip0_36_39)">
<path fill-rule="evenodd" clip-rule="evenodd" d="M440.65 36.459C415.951 45.8818 399.368 62.3455 383.445 78.1539C363.188 98.2646 344 117.315 310.53 119.459C279.541 121.441 259.385 107.463 237.977 92.6171C218.764 79.2937 198.543 65.2713 168.58 61.459C132.842 56.9182 77.2539 59.15 0.464061 135H0V135.459V222L1417 205.5V135.459L1417.01 135.459C1417.01 135.456 1417 135.453 1417 135.451V135H1416.46C1283.69 23.538 1208.14 19.4824 1163.65 36.459C1138.95 45.8818 1122.37 62.3456 1106.44 78.154C1086.19 98.2646 1067 117.315 1033.53 119.459C1001.97 121.478 981.3 107.864 958.646 92.9447C940.016 80.6756 920.046 67.524 891.58 61.459C847.806 52.1314 783.364 59.8914 692.079 133.848C560.171 23.5102 484.985 19.5411 440.65 36.459Z" fill="#EF8184"/>
</g>
<defs>
<clipPath id="clip0_36_39">
<rect width="1417" height="195" fill="white"/>
</clipPath>
</defs>
</svg>
