<?xml version="1.0" encoding="UTF-8"?><svg id="Layer_2" xmlns="http://www.w3.org/2000/svg" viewBox="0 0 194.25 104.1"><defs><style>.cls-1{fill:#f1e36a;}.cls-2{fill:#fcefb9;}</style></defs><g id="Camada_1"><g><g><path class="cls-1" d="M108.66,103.6c-1.76,0-3.34-1.11-4.12-2.89-1.46-3.34-2.79-6.79-3.94-10.27l-.09-.27-.28-.06c-5.93-1.33-12.23-2.75-18.46-4.25-1.85-.45-3.01-1.68-3.17-3.37-.19-1.93,.98-3.88,2.84-4.74,4.88-2.25,9.94-4,14.24-5.41l.41-.13-.07-.42c-.64-3.91-1.1-7.88-1.36-11.79v-.05l-.22-.77c-.18-.64-.37-1.29-.52-1.95-.32-1.41-.03-2.78,.82-3.84,.8-1,1.98-1.58,3.22-1.58,.96,0,1.91,.35,2.75,1.02,4.93,3.93,9.61,8.23,13.93,12.79l.23,.25,.31-.12c3.1-1.22,5.82-2.45,8.3-3.74,.72-.37,1.47-.56,2.23-.56,1.45,0,2.78,.7,3.56,1.88,.78,1.19,.87,2.64,.25,4.09-1.32,3.09-2.81,6.38-4.56,10.07l-.13,.27,.18,.24c2.9,3.91,5.56,7.87,7.89,11.79,.8,1.35,.82,2.97,.04,4.34-.76,1.33-2.09,2.13-3.57,2.13-.28,0-.57-.03-.86-.09-2.53-.5-5.06-1.04-7.58-1.58-1.3-.28-4.25-.9-4.25-.9l-.18,.32c-1.58,2.86-2.92,5.2-4.21,7.38-.84,1.42-2.17,2.23-3.64,2.23Z"/><path class="cls-2" d="M97.97,52.3c.85,0,1.69,.32,2.43,.91,4.9,3.91,9.58,8.2,13.88,12.74l.46,.49,.63-.25c3.11-1.23,5.85-2.46,8.35-3.77,.65-.34,1.32-.51,2-.51,1.28,0,2.46,.62,3.14,1.66,.69,1.04,.76,2.33,.2,3.62-1.32,3.08-2.81,6.37-4.55,10.06l-.26,.54,.36,.48c2.89,3.89,5.54,7.84,7.86,11.75,.71,1.19,.72,2.63,.03,3.84-.67,1.17-1.84,1.87-3.14,1.87-.25,0-.51-.03-.76-.08-2.53-.5-5.09-1.05-7.57-1.58-1.3-.28-2.6-.55-3.9-.83l-.72-.15-.36,.65c-1.57,2.84-2.9,5.18-4.2,7.37-.76,1.28-1.9,1.99-3.21,1.99-1.56,0-2.96-.99-3.66-2.59-1.46-3.33-2.78-6.77-3.93-10.22l-.18-.54-.55-.12c-5.94-1.33-12.25-2.76-18.45-4.25-1.63-.39-2.65-1.46-2.79-2.94-.17-1.72,.88-3.46,2.56-4.23,4.87-2.24,9.9-3.98,14.19-5.39l.81-.27-.14-.84c-.64-3.89-1.09-7.84-1.36-11.74v-.1l-.03-.1c-.07-.24-.14-.49-.21-.73-.19-.66-.37-1.28-.51-1.92-.29-1.26-.03-2.48,.73-3.42,.71-.89,1.74-1.39,2.83-1.39m0-1c-2.84,0-5.29,2.71-4.53,6.03,.21,.92,.48,1.8,.73,2.69,.27,3.99,.73,7.94,1.37,11.84-4.85,1.59-9.65,3.29-14.3,5.43-4.05,1.87-4.5,7.87,.42,9.05,6.14,1.48,12.3,2.87,18.46,4.26,1.16,3.47,2.47,6.91,3.96,10.31,.9,2.06,2.74,3.19,4.58,3.19,1.53,0,3.07-.79,4.07-2.48,1.45-2.44,2.84-4.91,4.21-7.39,3.82,.8,7.64,1.64,11.47,2.4,.33,.07,.65,.1,.96,.1,3.54,0,5.86-4.02,3.96-7.22-2.45-4.11-5.1-8.04-7.92-11.83,1.58-3.33,3.11-6.69,4.57-10.09,1.52-3.56-1.06-6.67-4.27-6.67-.8,0-1.64,.19-2.46,.62-2.69,1.4-5.45,2.61-8.26,3.72-4.33-4.56-8.98-8.84-13.98-12.83-.98-.79-2.05-1.13-3.06-1.13h0Z"/></g><g><path class="cls-1" d="M14.69,92.68c-.94,0-1.74-.56-2.14-1.51-1.46-3.49-2.69-7.11-3.65-10.75l-.09-.33-.34-.04c-2-.25-3.79-.39-5.49-.43-1.11-.02-2.05-.67-2.37-1.66-.32-.95,0-1.91,.87-2.59,1.58-1.24,3.32-2.55,5.31-4l.24-.18-.04-.3c-.4-2.89-.66-5.75-.76-8.48-.02-.66,.21-1.27,.66-1.74,.46-.47,1.08-.74,1.72-.74,.53,0,1.03,.19,1.46,.55,1.2,1,2.38,2.02,3.56,3.04l2.08,1.79,.31-.2c1.65-1.04,3.03-1.9,4.35-2.68,.44-.26,.88-.39,1.33-.39,.62,0,1.2,.26,1.63,.73,.49,.54,.72,1.27,.65,2.06-.19,2.18-.49,4.38-.88,6.54l-.05,.28,.21,.19c2.74,2.41,5.66,4.99,8.51,7.58,.76,.69,1,1.56,.68,2.4-.37,.96-1.4,1.64-2.5,1.64-.07,0-.13,0-.2,0-3.22-.22-6.39-.76-9.06-1.26l-.42-.08-.14,.4c-.79,2.24-1.69,4.46-2.68,6.6l-.02,.05-.11,.49c-.09,.39-.18,.78-.29,1.17-.36,1.28-1.44,1.85-2.34,1.85Z"/><path class="cls-2" d="M8.62,60.44h0c.41,0,.8,.14,1.14,.43,1.19,.99,2.36,2,3.53,3.01,.61,.52,1.21,1.04,1.82,1.56l.56,.48,.62-.39c1.65-1.05,3.03-1.89,4.34-2.67,.36-.21,.72-.32,1.07-.32,.48,0,.93,.2,1.26,.57,.39,.43,.58,1.03,.52,1.68-.19,2.17-.49,4.35-.88,6.5l-.1,.56,.42,.37c2.74,2.41,5.66,4.99,8.51,7.57,.6,.55,.8,1.21,.55,1.85-.3,.78-1.14,1.32-2.04,1.32-.05,0-.11,0-.17,0-3.2-.22-6.35-.76-9.01-1.25l-.84-.16-.28,.81c-.79,2.23-1.68,4.44-2.66,6.56l-.04,.09-.02,.1-.1,.44c-.09,.4-.17,.77-.28,1.14-.31,1.09-1.2,1.48-1.86,1.48-.75,0-1.36-.44-1.68-1.2-1.45-3.47-2.67-7.06-3.63-10.69l-.17-.65-.67-.08c-2.01-.25-3.83-.39-5.54-.43-1.09-.02-1.7-.69-1.91-1.31-.25-.74,.02-1.5,.7-2.04,1.58-1.24,3.32-2.55,5.3-3.98l.49-.35-.08-.59c-.4-2.87-.65-5.71-.75-8.43-.02-.66,.27-1.11,.52-1.38,.36-.38,.86-.59,1.36-.59m0-1c-1.52,0-2.94,1.27-2.88,3,.1,2.88,.37,5.72,.76,8.53-1.8,1.3-3.58,2.63-5.33,4.01-2.29,1.8-1,5.08,1.8,5.14,1.83,.04,3.64,.2,5.44,.42,.97,3.66,2.19,7.27,3.67,10.82,.52,1.23,1.56,1.81,2.6,1.81,1.21,0,2.42-.77,2.82-2.21,.16-.54,.27-1.09,.39-1.63,1.01-2.19,1.91-4.4,2.7-6.64,3.02,.56,6.05,1.05,9.12,1.26,.08,0,.16,0,.23,0,2.56,0,4.35-2.92,2.16-4.91-2.81-2.56-5.66-5.07-8.52-7.58,.39-2.17,.69-4.36,.89-6.59,.17-1.88-1.15-3.34-2.78-3.34-.51,0-1.05,.14-1.58,.46-1.47,.87-2.92,1.77-4.36,2.68-1.79-1.53-3.56-3.07-5.36-4.59-.55-.46-1.17-.66-1.78-.66h0Z"/></g><g><path class="cls-1" d="M164.95,28.2c-.74,0-1.38-.39-1.78-1.06-.48-.82-.47-1.86,.01-2.72,1.6-2.81,3.45-5.43,5.05-7.63l.25-.35-.3-.3c-1.68-1.69-3.29-3.46-4.79-5.27l-.03-.04-.39-.31c-.31-.25-.63-.5-.93-.77-.97-.86-1.01-1.98-.73-2.73,.35-.92,1.17-1.46,2.21-1.46h.16c3.78,.2,7.57,.65,11.27,1.36l.33,.06,.18-.28c1.09-1.69,1.99-3.25,2.76-4.76,.46-.9,1.29-1.44,2.23-1.44,.84,0,1.93,.5,2.25,1.92,.44,1.97,.86,4.1,1.3,6.52l.05,.3,.29,.09c2.78,.89,5.47,1.89,7.98,2.99,.88,.38,1.43,1.22,1.44,2.19,0,.93-.5,1.72-1.35,2.11-1.41,.64-2.83,1.26-4.25,1.88l-2.54,1.12,.04,.37c.23,1.94,.4,3.55,.53,5.08,.07,.75-.13,1.41-.58,1.89-.43,.46-1.05,.73-1.72,.73-.49,0-.98-.14-1.43-.41-1.88-1.12-3.74-2.34-5.52-3.63l-.23-.17-.26,.11c-3.36,1.43-6.95,2.95-10.51,4.4-.34,.14-.68,.21-1,.21Z"/><path class="cls-2" d="M180.45,1c.69,0,1.51,.4,1.76,1.53,.44,1.97,.86,4.09,1.3,6.5l.11,.59,.57,.18c2.77,.88,5.43,1.88,7.93,2.97,.83,.36,1.13,1.13,1.14,1.73,0,.73-.39,1.35-1.06,1.65-1.41,.64-2.82,1.26-4.24,1.88-.74,.32-1.47,.64-2.21,.97l-.68,.3,.09,.73c.23,1.94,.4,3.55,.53,5.06,.05,.61-.1,1.13-.45,1.51-.33,.36-.82,.57-1.35,.57-.4,0-.8-.12-1.17-.34-1.87-1.11-3.71-2.32-5.48-3.6l-.46-.33-.52,.22c-3.37,1.43-6.95,2.95-10.51,4.39-.28,.11-.56,.17-.81,.17-.76,0-1.17-.51-1.34-.81-.39-.67-.38-1.52,.02-2.22,1.58-2.79,3.43-5.39,5.02-7.58l.5-.69-.6-.61c-1.67-1.67-3.27-3.44-4.76-5.24l-.06-.08-.08-.06-.35-.28c-.32-.25-.62-.49-.91-.75-.78-.69-.82-1.58-.59-2.18,.27-.71,.92-1.14,1.74-1.14,.04,0,.09,0,.13,0,3.75,.19,7.52,.65,11.2,1.35l.66,.13,.37-.57c1.1-1.71,2.01-3.28,2.78-4.81,.37-.73,1.04-1.17,1.78-1.17m0-1c-1.04,0-2.09,.57-2.68,1.72-.82,1.63-1.75,3.19-2.73,4.72-3.72-.71-7.5-1.17-11.34-1.37-.06,0-.12,0-.18,0-2.75,0-3.85,3.26-1.81,5.07,.42,.38,.87,.71,1.3,1.06,1.53,1.86,3.14,3.62,4.82,5.31-1.81,2.48-3.56,5-5.08,7.67-1.13,1.99,.07,4.53,2.2,4.53,.37,0,.77-.08,1.19-.25,3.52-1.43,7.02-2.91,10.52-4.4,1.78,1.29,3.63,2.51,5.55,3.65,.55,.33,1.13,.48,1.69,.48,1.59,0,2.97-1.25,2.79-3.17-.15-1.7-.33-3.4-.53-5.09,2.15-.95,4.31-1.88,6.45-2.85,2.27-1.03,2.14-4.24-.09-5.21-2.64-1.15-5.32-2.14-8.02-3.01-.4-2.18-.83-4.36-1.31-6.54-.34-1.53-1.52-2.31-2.74-2.31h0Z"/></g></g></g></svg>