<?xml version="1.0" encoding="UTF-8"?><svg id="Layer_2" xmlns="http://www.w3.org/2000/svg" viewBox="0 0 211.23 195.9"><defs><style>.cls-1{fill:#fff;}.cls-2{fill:#f08286;}</style></defs><g id="Camada_1"><g><path class="cls-2" d="M196.69,99.75c8.79-7.75,14.25-18.28,12.76-31.64-2.67-23.98-24.59-29.61-45.87-27.98,.95-17.25-4.89-33.64-25.01-38.91-16.09-4.21-28.72,2.96-37.26,14.52-1.87-1.33-3.88-2.52-6.08-3.51-14.39-6.49-32.05-3.5-41.4,9.68-8.38,11.81-7.55,23.96-1.94,34.89-20.14-3.73-40.56-.05-49.08,20.17-10.37,24.64,9.48,40.74,32.28,50.03-9.33,12.29-11.81,27.01,4.05,38.38,14.46,10.37,33.31,9.28,49.55,2.36,7.78,16.93,22.9,29.71,43.65,28.01,20.13-1.65,27.66-15.55,28.42-31.66,19.79,5.67,39.91,3.27,48.25-20.23,5.45-15.34,.45-31.55-10.92-42.81-.46-.46-.94-.88-1.41-1.31Z"/><path class="cls-1" d="M168.8,99.45c16.79,2.15,30.36-24.62,21.54-38.15-5.62-8.62-16.86-9.51-26.01-7.48-5.92,1.31-11.63,3.82-17.18,6.22-1.38,.6-3.48,1.16-5.27,2.04,6.52-14.45,13.08-41.91-8.47-44.81-8.76-1.18-17.22,6.52-21.41,13.48-3.81,6.35-4.16,13.37-3.39,20.4-3.44-8.46-8.35-15.93-16.62-21-8.35-5.12-20.07-7.95-28.87-2.31-15.83,10.14-4.95,30.74,6.58,42.07-20.66-8.22-52.97-10.75-59.58,14.56-6.97,26.66,32,31.42,51.78,30.87-14.7,9.29-24.9,29.87-7.57,42.63,20.22,14.89,37.83-3.94,51.11-17.82-4.11,9.03-6.24,19.37-1.73,28.7,4.32,8.93,14.74,16.75,24.7,17.67,25.84,2.38,22.74-31.05,17.97-49.03,7.72,13.98,32.17,27.35,43.33,12.29,5.4-7.29,5.68-20.97,1.7-28.97-4.49-9.03-14.15-15.88-22.62-21.38Zm22.54,39.13c-1.99,6.69-6.37,14.11-13.54,14.78-5.74,.54-10.52-.77-15.59-3.43-7.34-3.85-13.5-9.27-15.82-17.41-.24-.83-1.17-.75-1.61-.23-.55-.81-2.04-.19-1.67,.89,5.11,15.11,12.49,52.97-14.57,51.21-9.47-.62-19.1-8.22-23.04-16.7-4.52-9.72-1.8-19.84,2.76-28.94,.44-.88-.54-1.56-1.25-1.28-.34-.43-1.03-.64-1.52-.12-10.47,10.87-20,25.19-37.25,23.58-10.77-1.01-19.38-7.82-20.96-19.05-1.71-12.13,9.17-22.08,18.94-26.75,.02,0,.03,0,.05,0,.95-.08,1.07-1.23,.51-1.71-.22-.27-.58-.41-1-.21-.02,0-.03,.02-.05,.02-17.57,1.29-64.73-2.37-52.55-31.61,9.73-23.37,44.01-16.46,61.84-7.18,.49,.35,.98,.69,1.46,1,.21,.14,.41,.15,.59,.12,0,0,.01,0,.02,0,1.08,.62,1.9-1.12,.83-1.74-.64-.37-1.31-.73-2.01-1.09-14.23-10.5-32.74-45.34-.73-45.77,19.37-.26,29.91,17.59,34.7,33.78,.23,.79,1.11,.75,1.57,.29,.35-.12,.62-.43,.52-.92-2.9-15.49-2.32-33.47,15.23-39.73,14.67-5.23,20.54,11.54,19.02,22.73-1.04,7.69-4.22,14.96-7.85,21.75-.41,.76,.31,1.38,.98,1.33,.18,.09,.36,.18,.54,.27,.49,.25,1.02-.01,1.29-.45,.09-.16,.18-.31,.28-.47,.37-.62-.06-1.14-.61-1.28,.06-.13,.12-.26,.19-.39,2.42-1.06,7.35-2.27,8.47-2.75,2.24-.95,4.49-1.87,6.77-2.72,7.27-2.71,15.95-5.41,23.57-2.37,10.46,4.18,14.29,15.55,9.54,25.8-3.41,7.34-13.26,17.9-22.5,15.27-.6-.17-.99,.23-1.07,.71-.67,.18-1,1.34-.19,1.85,12.77,8.19,31.09,20.92,25.73,38.92Z"/></g></g></svg>