<?xml version="1.0" encoding="UTF-8"?><svg id="Layer_2" xmlns="http://www.w3.org/2000/svg" viewBox="0 0 306.9 322.5"><defs><style>.cls-1{fill:#f1e36a;}</style></defs><g id="Camada_1"><path class="cls-1" d="M285.04,172.06c-1.88-20.17-2.94-33.21-.03-51.45,6.98-43.69,27.99-59.04,20.16-83.43-4.91-15.29-19.78-29.82-37.49-35.12-40.97-12.26-65.6,34.27-121.03,29.13-28.34-2.63-30.85-15.62-63.7-15.63-9.89,0-42.44,.16-64.33,21.49-2.81,2.73-9.52,9.79-14.27,21.39-14.98,36.58,12.99,61.21,19.97,107.91,9.46,63.24-28.38,97-5.29,129.03,5.04,6.99,17.11,19.52,35.68,23.92,2.73,.65,9.93,2.14,23.23,1.03,30.87-2.59,34.89-14.25,60.13-17.82,27.19-3.85,52.9,5.37,59.55,7.76,14.03,5.03,17.51,9.05,30.97,11.1,6.61,1,23.91,3.41,41.29-4.54,18.35-8.4,26.52-23.66,29.54-29.31,16.09-30.07-8.26-49.71-14.39-115.45Z"/></g></svg>