<?xml version="1.0" encoding="UTF-8"?><svg id="Layer_2" xmlns="http://www.w3.org/2000/svg" viewBox="0 0 1220.36 1099.39"><defs><style>.cls-1{fill:#f1e36a;}.cls-2{fill:#ef8184;}.cls-3{fill:#f0e36a;}.cls-4{fill:none;stroke:#ef8184;stroke-dasharray:0 0 0 0 0 0 0 29.83 0 0 29.83 0;stroke-linecap:round;stroke-miterlimit:10;stroke-width:7px;}</style></defs><g id="Camada_1"><path class="cls-4" d="M29.49,222.79c51.9-109.18,234.8-108.63,287.44-108.48,176.74,.53,200.01,94.33,353.46,75.18,102.02-12.74,107.72-56.2,249.2-75.02,88.33-11.75,172.18-21.53,230.85,37.86,54.11,54.77,59.21,140.42,60.82,167.49,9.19,154.37-90.47,202.08-72.89,329.15,13.26,95.85,74.07,104.14,78.27,196.01,3.73,81.7-42.27,167.98-94.27,213.85-150.66,132.91-328.32-140.12-639.76-66.84-151.81,35.72-214.88,123.94-323.27,79.17-74.73-30.87-142.6-113.23-154.23-207.05-12.36-99.73,49.53-126.01,68.75-254.96C103.26,411.92-19.57,326,29.49,222.79Z"/><g><path class="cls-1" d="M1043.58,53.53c10.26-10.82,26.61-18.93,39.86-12.09,10.5,5.42,14.92,18,23.41,26.23,20.99,20.34,61.48,10.13,79.09,33.47,10.51,13.93,7.46,33.98-.03,49.74-7.49,15.76-18.84,29.64-24.61,46.11-8.13,23.22-4.75,50.32-17.86,71.13-7.87,12.49-21.39,21.25-36,23.34-14.61,2.09-30.04-2.55-41.09-12.34-9.24-8.19-15.41-19.62-25.51-26.72-10.03-7.05-22.67-8.97-34.81-10.68-12.14-1.71-24.78-3.58-34.86-10.56-10.08-6.98-16.6-20.75-11.37-31.83,2.86-6.06,8.6-10.26,12.13-15.96,8.59-13.86,2.15-31.77-4.43-46.69-6.58-14.92-13.02-32.83-4.43-46.69,10.32-16.65,29-13.68,45.33-11.9,19.1,2.08,22.94-11.66,35.17-24.55Z"/><path class="cls-2" d="M1091.5,110.39c18.42,7,31.4,27.79,26.95,46.99-2.51,10.82-9.76,19.91-17.53,27.85-9.11,9.31-19.65,17.85-32.21,21.29-23.43,6.41-50.58-9.07-56.99-32.5-11.83-43.18,42.03-77.96,79.77-63.62Z"/></g><g><path class="cls-3" d="M64.31,32.22c2.04-3.09,4.14-6.12,6.29-9.12-2.1-4.23-4.01-8.57-5.69-13.05-1.42-3.79,2.25-7.66,6.11-6.14,3.64,1.43,7.24,2.94,10.87,4.4,1.79-2.2,3.6-4.38,5.46-6.53,2.83-3.27,7.44-1.77,8.39,2.23,.86,3.61,1.55,7.22,2.07,10.85,5.82,2.45,11.63,4.92,17.42,7.46,4.63,2.04,3.13,7.87-1.19,8.98-4.95,1.28-9.98,2.1-15.03,2.81-.07,3.95-.31,7.91-.75,11.89,.09,.92,.2,1.84,.24,2.78,.21,4.62-5.19,7.08-8.34,3.48-4.21-4.81-8.03-9.85-11.48-15.11-2.96,.59-5.89,1.3-8.79,2.2-4.44,1.38-8.21-3.11-5.54-7.15Z"/><path class="cls-3" d="M193.64,22.62c-1.97,1.04-3.96,2.03-5.95,3-.11,2.84-.36,5.68-.77,8.53-.35,2.41-3.4,3.39-5,1.48-1.51-1.81-2.98-3.64-4.46-5.46-1.58,.64-3.17,1.27-4.77,1.87-2.44,.91-4.44-1.22-3.78-3.6,.59-2.15,1.27-4.26,2.04-6.32-2.36-2.98-4.72-5.96-7.04-8.97-1.85-2.41,.62-5.06,3.23-4.4,2.98,.75,5.88,1.77,8.75,2.86,1.18-2.07,2.45-4.09,3.83-6.06,.22-.51,.43-1.03,.68-1.54,1.23-2.5,4.79-2.24,5.41,.57,.83,3.76,1.4,7.52,1.7,11.3,1.73,.54,3.48,1.02,5.27,1.38,2.74,.55,3.43,4.01,.86,5.38Z"/><path class="cls-3" d="M26.17,101.83c-.09-2.22-.12-4.45-.13-6.67-2.51-1.33-4.97-2.78-7.36-4.38-2.02-1.35-1.59-4.53,.83-5.14,2.28-.58,4.57-1.11,6.86-1.66,.1-1.7,.22-3.4,.38-5.11,.23-2.59,3.02-3.47,4.89-1.85,1.69,1.46,3.29,2.99,4.82,4.58,3.71-.84,7.41-1.68,11.14-2.46,2.98-.63,4.29,2.75,2.57,4.81-1.97,2.36-4.14,4.53-6.37,6.65,1.35,1.95,2.63,3.98,3.81,6.08,.37,.42,.74,.83,1.09,1.28,1.72,2.19-.05,5.28-2.86,4.63-3.75-.87-7.39-2-10.92-3.36-1.24,1.33-2.42,2.7-3.52,4.16-1.69,2.23-5.1,1.36-5.22-1.55Z"/></g></g></svg>