<?xml version="1.0" encoding="UTF-8"?><svg id="Layer_2" xmlns="http://www.w3.org/2000/svg" xmlns:xlink="http://www.w3.org/1999/xlink" viewBox="0 0 825 290"><defs><style>.cls-1{fill:#fff;filter:url(#drop-shadow-1);}</style><filter id="drop-shadow-1" filterUnits="userSpaceOnUse"><feOffset dx="6" dy="6"/><feGaussianBlur result="blur" stdDeviation="15"/><feFlood flood-color="#b7b7b7" flood-opacity=".2"/><feComposite in2="blur" operator="in"/><feComposite in="SourceGraphic"/></filter></defs><g id="Camada_1"><path class="cls-1" d="M772.5,115.85c-7.82-28.38-44.04-46.51-80.9-40.49-7.97,1.3-15.31,3.63-21.85,6.76-17.56-23.89-53.76-37.37-90.47-31.37-21.36,3.49-39.07,12.95-50.84,25.63-10.99-2.74-23.02-3.37-35.13-1.39-7.97,1.3-15.31,3.63-21.85,6.76-17.56-23.89-53.76-37.37-90.47-31.37-18.69,3.06-34.6,10.69-46.17,21.05-14.29-6.64-31.76-9.28-49.38-6.4-7.97,1.3-15.31,3.63-21.85,6.76-17.56-23.89-53.76-37.37-90.47-31.37-28.22,4.61-50.09,19.65-60.27,38.76-8.35-1.58-17.28-1.77-26.25-.3-31.85,5.21-52.19,29.31-45.43,53.84,1.96,7.11,5.99,13.48,11.49,18.81-8.57,8.65-12.37,20.01-9.21,31.49,5.76,20.89,32.41,34.22,59.53,29.79,8.03-1.31,15.21-4.04,21.18-7.77,12.16,17.15,37.89,26.89,63.98,22.63,19.03-3.11,33.95-12.97,41.44-25.63,12.6,15.01,35.71,23.19,58.98,20.49,7.09,1.33,14.67,1.49,22.28,.24,8.03-1.31,15.21-4.04,21.18-7.77,12.16,17.15,37.89,26.89,63.98,22.63,19.03-3.11,33.95-12.97,41.44-25.63,14.34,17.07,42.26,25.32,68.57,18.75,10.42-2.6,19.26-7.2,26.07-13.06,12.77,15.7,37.31,24.39,62.21,20.32,19.03-3.11,33.95-12.97,41.44-25.63,14.34,17.07,42.26,25.32,68.57,18.75,31.38-7.84,48.57-33.78,38.39-57.94-.26-.62-.54-1.22-.83-1.82,23.66-11.36,36.75-33.28,30.63-55.5Z"/></g></svg>