<?xml version="1.0" encoding="UTF-8"?><svg id="Layer_2" xmlns="http://www.w3.org/2000/svg" viewBox="0 0 427.28 379.44"><defs><style>.cls-1{fill:#b6d9f1;}.cls-2{fill:#f2e46b;}</style></defs><g id="Camada_1"><g><path class="cls-1" d="M98.67,13.86c3.97-1.38,56.25-18.74,88.74,8.74,32,27.07,11.11,68.65,40.19,90.07,27.8,20.48,56.28-10.6,104.27,2.7,43.78,12.13,80.49,55.38,92.1,105.23,10.05,43.15-2.55,98.26-42.17,131.02-47.84,39.56-110.52,26.23-124.4,23.28-52.82-11.24-54.22-40.93-99.87-45.46-54.37-5.4-75.41,33.8-112.1,19.02C17.26,337.11-2.79,300.9,.32,270.75c4.18-40.59,47.49-43.02,55.62-85.25,8.28-42.99-32.78-60.32-23.58-104.1C39.34,48.15,70.24,23.73,98.67,13.86Z"/><g><path class="cls-2" d="M283.16,25.63c-1.35-3.35-2.97-6.49-4.84-9.45-2.46,2.29-4.93,4.58-7.34,6.93-3.02,2.94-7.64-2.39-4.28-4.96,2.83-2.16,5.61-4.39,8.39-6.61-1.97-2.55-4.17-4.96-6.58-7.25-2.06-1.95,1.16-5.65,3.34-3.78,2.74,2.35,5.26,4.87,7.57,7.55,2.68-2.18,5.36-4.37,8.03-6.57,2.31-1.9,5.26,1.51,3.04,3.52-2.62,2.37-5.23,4.75-7.84,7.14,2.44,3.32,4.62,6.85,6.49,10.64,1.9,3.84-4.4,6.79-5.99,2.84Z"/><path class="cls-2" d="M264.65,88.32c-1.9-2.3-3.8-4.59-5.71-6.89-1.57,1.74-3.3,3.41-5.45,4.19-2.73,.99-6.68-2.13-4.25-4.93,1.58-1.82,3.57-2.97,5.47-4.36-2.01-2.43-4.03-4.86-6.04-7.29-2.54-3.06,2.02-7,4.68-4.04,2.06,2.29,4.12,4.58,6.18,6.87,.86-.98,1.68-2,2.44-3.09,1.98-2.84,6.35,.09,4.47,2.99-.97,1.49-2,2.95-3.07,4.37,2.24,2.49,4.49,4.99,6.73,7.48,3.1,3.44-2.49,8.27-5.45,4.7Z"/><path class="cls-2" d="M334.7,86.41c.19-2.61-1.01-4.64-1.6-7.12-.68-2.84-1.16-6.39-.97-9.3,.32-4.94,1.83-12.99,5.5-16.65,2.74-2.73,.86-8.84-3.62-7.54-5.57,1.62-11.12,3.17-16.96,3.14-5.79-.03-9.19-.18-12.63-5.01-3.61-5.09-12.04,.6-9.11,5.94,.9,1.63,1.11,5.43,1.35,7.32,.37,2.83-.19,5.36-.61,8.15-.77,5.16-3.76,9.01-6.63,13.11-.05,.02-.09,.06-.14,.08-3.95,1.75-2.19,6.88,1.41,7.54,2.39,.44,5.36-.34,7.72-.8,3.56-.7,7.03-1.47,10.67-1.72,7.37-.5,12.05,3.04,18.01,6.57,3.11,1.84,7.31,.12,7.58-3.7Z"/></g></g></g></svg>