<?xml version="1.0" encoding="UTF-8"?><svg id="Layer_2" xmlns="http://www.w3.org/2000/svg" viewBox="0 0 278.98 214.96"><defs><style>.cls-1{fill:#b5d8f0;}</style></defs><g id="Camada_1"><g><path class="cls-1" d="M41.28,100.37c-20.53,12-1.91,43.93,18.65,31.91,20.53-12,1.91-43.93-18.65-31.91Z"/><path class="cls-1" d="M74.84,124.89c-22.97,13.43-2.14,49.16,20.87,35.7,22.97-13.43,2.14-49.16-20.87-35.7Z"/><path class="cls-1" d="M149.64,128.66c-5.6-1.21-11.3-.71-16.35,2.24-4.77,2.79-8.57,7.8-9.97,13.15-1.34,5.12-.67,11.83,2.24,16.35,3.03,4.69,7.53,8.75,13.15,9.97,5.6,1.21,11.3,.71,16.35-2.24,4.77-2.79,8.57-7.8,9.97-13.15,1.34-5.12,.68-11.83-2.24-16.35-3.03-4.69-7.53-8.76-13.15-9.97Z"/><path class="cls-1" d="M131.15,97.26c.4,.22,.8,.44,1.19,.66,11.44,6.35,25.83-2.06,25.91-15.15,0-.46,0-.91,0-1.36,.08-13.82-15.52-22.62-27.37-15.7-11.84,6.92-11.83,24.84,.26,31.55Z"/><path class="cls-1" d="M201.25,2.82c-21.75,12.72-2.02,46.54,19.76,33.8,21.75-12.72,2.02-46.54-19.76-33.8Z"/><path class="cls-1" d="M189.21,52.7c-14.91,8.72-1.39,31.9,13.55,23.17,14.91-8.72,1.39-31.9-13.55-23.17Z"/><path class="cls-1" d="M202.01,107.49c-10.51,6.14-.98,22.49,9.55,16.33,10.51-6.14,.98-22.49-9.55-16.33Z"/><path class="cls-1" d="M186.59,142.19c-12.22,7.14-1.14,26.15,11.1,18.99s1.14-26.15-11.1-18.99Z"/><path class="cls-1" d="M165.5,190.68c-14.42,8.43-1.34,30.85,13.1,22.41,14.42-8.43,1.34-30.85-13.1-22.41Z"/><path class="cls-1" d="M100.35,187.31c-14.66,8.57-1.36,31.38,13.32,22.79,14.66-8.57,1.36-31.38-13.32-22.79Z"/><path class="cls-1" d="M50.35,181.66c-11.24,6.57-1.05,24.06,10.21,17.47,11.24-6.57,1.05-24.06-10.21-17.47Z"/><path class="cls-1" d="M5.31,132.81c-12.22,7.14-1.14,26.15,11.1,18.99,12.22-7.14,1.14-26.15-11.1-18.99Z"/><path class="cls-1" d="M264.21,54.13c-11,6.43-1.02,23.53,9.99,17.09,11-6.43,1.02-23.53-9.99-17.09Z"/><path class="cls-1" d="M231.33,58.07c-.24,.09-.48,.17-.72,.26-5.55,2.01-10.54,5.79-11.87,11.92-.94,4.34-.55,8.77,1.74,12.68,2.16,3.7,6.05,6.65,10.19,7.73,6.15,1.61,11.58-.51,16.21-4.5,.19-.17,.39-.33,.58-.5,2.65-2.28,4.01-6.17,4.44-9.47,.45-3.5-.02-7.41-2-10.47-1.6-2.47-3.67-4.53-6.18-6.08-3.16-1.96-8.84-2.86-12.4-1.58Z"/><path class="cls-1" d="M237.67,116.8c-5.36,3.14-7.75,10.86-4.26,16.25,3.5,5.41,10.5,7.62,16.25,4.26,5.36-3.14,7.75-10.86,4.26-16.25-3.5-5.41-10.5-7.62-16.25-4.26Z"/><path class="cls-1" d="M222.78,166.51c-10.75,6.29-1,23.01,9.77,16.71,10.75-6.29,1-23.01-9.77-16.71Z"/><path class="cls-1" d="M197.01,183.5c-14.18,8.29-1.32,30.33,12.88,22.03,14.18-8.29,1.32-30.33-12.88-22.03Z"/></g></g></svg>