<?xml version="1.0" encoding="UTF-8"?><svg id="Layer_2" xmlns="http://www.w3.org/2000/svg" viewBox="0 0 366.41 119.33"><defs><style>.cls-1{fill:#f2e46b;}</style></defs><g id="Camada_1"><g><path class="cls-1" d="M343.79,12.07c6.66,.26,13.59-1,20.32-1.38,2.87-.16,3.15-4.64,.26-4.62-6.72,.04-13.5-.8-20.24-.13-3.84,.38-4.15,5.98-.35,6.13Z"/><path class="cls-1" d="M291.15,7.37c8.1,1.45,16.59,1.91,24.84,2.84,2.48,.28,4.06-3.46,1.54-4.08-8.2-2.02-16.35-4.55-24.73-6.05-4.97-.89-6.6,6.41-1.65,7.29Z"/><path class="cls-1" d="M243.39,15.29c5.21-1.19,10.36-3.2,15.46-4.87,3.8-1.24,2.64-6.95-1.33-6.1-5.21,1.11-10.64,1.93-15.75,3.51-4.67,1.44-3.21,8.57,1.62,7.47Z"/><path class="cls-1" d="M192.09,41.45c7.05-3.76,13.31-8.69,20.11-12.82,3.55-2.16,.09-6.57-3.45-4.51-6.92,4.03-14.35,7.22-21.02,11.63-4.47,2.95-.12,8.09,4.36,5.7Z"/><path class="cls-1" d="M145.47,66.53c9.11-2.27,17.73-7.69,26.19-11.73,2.59-1.24,1.38-4.56-1.39-3.67-8.9,2.84-18.88,4.78-27.08,9.35-3.23,1.8-1.36,6.95,2.27,6.05Z"/><path class="cls-1" d="M103.71,68.27c5.76,2.1,12.96,1.6,19.21,.23,2.74-.6,2.6-4.72-.25-4.48-6.04,.5-10.91-.72-16.44-2.18-4.47-1.18-6.61,4.94-2.51,6.43Z"/><path class="cls-1" d="M32.85,61.57c-5.5,3.52-9.45,9.32-12.02,14.79-1.13,2.4,2.79,4.16,4.32,1.84,3.25-4.91,7.38-8.13,12.13-11.76,3.84-2.93-.52-7.37-4.43-4.87Z"/><path class="cls-1" d="M88.78,52.66c-4.7-2-11.34-1.63-16.65-1.23-5.6,.43-11.31,1.95-16.67,3.87-2.5,.89-1.71,4.56,.92,4.03,5.17-1.05,10.17-1.34,15.31-.98,4.97,.35,9.34,2.15,14.19,2.67,5.47,.58,7.42-6.43,2.9-8.36Z"/><path class="cls-1" d="M9.1,94.23c-3.49,7.28-6.01,14.98-8.97,22.42-.89,2.24,2.8,3.86,4.08,1.6,4.14-7.35,8.82-14.63,12.44-22.17,2.14-4.47-5.42-6.3-7.55-1.86Z"/></g></g></svg>